<?xml version="1.0" encoding="UTF-8" standalone="no"?>
<!DOCTYPE svg PUBLIC "-//W3C//DTD SVG 1.1//EN"
 "http://www.w3.org/Graphics/SVG/1.1/DTD/svg11.dtd">
<!-- Generated by graphviz version 2.43.0 (0)
 -->
<!-- Title: output Pages: 1 -->
<svg width="638pt" height="305pt"
 viewBox="0.00 0.00 638.00 305.00" xmlns="http://www.w3.org/2000/svg" xmlns:xlink="http://www.w3.org/1999/xlink">
<g id="graph0" class="graph" transform="scale(1 1) rotate(0) translate(4 301)">
<title>output</title>
<polygon fill="white" stroke="transparent" points="-4,4 -4,-301 634,-301 634,4 -4,4"/>
<!-- 12 -->
<g id="node1" class="node">
<title>12</title>
<ellipse fill="none" stroke="black" cx="140" cy="-192" rx="27" ry="18"/>
<text text-anchor="middle" x="140" y="-188.3" font-family="Times,serif" font-size="14.00">12</text>
</g>
<!-- 14 -->
<g id="node2" class="node">
<title>14</title>
<ellipse fill="none" stroke="black" cx="27" cy="-105" rx="27" ry="18"/>
<text text-anchor="middle" x="27" y="-101.3" font-family="Times,serif" font-size="14.00">14</text>
</g>
<!-- 12&#45;&gt;14 -->
<g id="edge1" class="edge">
<title>12&#45;&gt;14</title>
<path fill="none" stroke="black" d="M122.84,-178.09C104.09,-163.99 73.86,-141.25 52.37,-125.09"/>
<polygon fill="black" stroke="black" points="54.42,-122.25 44.32,-119.03 50.21,-127.84 54.42,-122.25"/>
<text text-anchor="middle" x="96" y="-144.8" font-family="Times,serif" font-size="14.00">1</text>
</g>
<!-- 13 -->
<g id="node3" class="node">
<title>13</title>
<ellipse fill="none" stroke="black" cx="99" cy="-105" rx="27" ry="18"/>
<text text-anchor="middle" x="99" y="-101.3" font-family="Times,serif" font-size="14.00">13</text>
</g>
<!-- 12&#45;&gt;13 -->
<g id="edge2" class="edge">
<title>12&#45;&gt;13</title>
<path fill="none" stroke="black" d="M132.09,-174.61C126.2,-162.38 118.03,-145.44 111.28,-131.46"/>
<polygon fill="black" stroke="black" points="114.38,-129.82 106.88,-122.34 108.07,-132.87 114.38,-129.82"/>
<text text-anchor="middle" x="127" y="-144.8" font-family="Times,serif" font-size="14.00">1</text>
</g>
<!-- 8 -->
<g id="node4" class="node">
<title>8</title>
<ellipse fill="none" stroke="black" cx="171" cy="-105" rx="27" ry="18"/>
<text text-anchor="middle" x="171" y="-101.3" font-family="Times,serif" font-size="14.00">8</text>
</g>
<!-- 12&#45;&gt;8 -->
<g id="edge3" class="edge">
<title>12&#45;&gt;8</title>
<path fill="none" stroke="black" d="M146.12,-174.21C150.5,-162.22 156.47,-145.85 161.46,-132.16"/>
<polygon fill="black" stroke="black" points="164.75,-133.35 164.89,-122.76 158.17,-130.95 164.75,-133.35"/>
<text text-anchor="middle" x="163" y="-144.8" font-family="Times,serif" font-size="14.00">1</text>
</g>
<!-- 1 -->
<g id="node5" class="node">
<title>1</title>
<ellipse fill="none" stroke="black" cx="315" cy="-18" rx="27" ry="18"/>
<text text-anchor="middle" x="315" y="-14.3" font-family="Times,serif" font-size="14.00">1</text>
</g>
<!-- 14&#45;&gt;1 -->
<g id="edge4" class="edge">
<title>14&#45;&gt;1</title>
<path fill="none" stroke="black" d="M48.12,-93.47C52.96,-91.22 58.12,-88.93 63,-87 137.73,-57.41 229.89,-36.18 279.44,-25.93"/>
<polygon fill="black" stroke="black" points="280.25,-29.33 289.35,-23.91 278.85,-22.48 280.25,-29.33"/>
<text text-anchor="middle" x="164" y="-57.8" font-family="Times,serif" font-size="14.00">1</text>
</g>
<!-- 13&#45;&gt;1 -->
<g id="edge5" class="edge">
<title>13&#45;&gt;1</title>
<path fill="none" stroke="black" d="M120.2,-93.67C125.03,-91.4 130.17,-89.06 135,-87 185.54,-65.4 245.47,-43.48 281.84,-30.57"/>
<polygon fill="black" stroke="black" points="283.18,-33.81 291.45,-27.17 280.85,-27.21 283.18,-33.81"/>
<text text-anchor="middle" x="219" y="-57.8" font-family="Times,serif" font-size="14.00">1</text>
</g>
<!-- 8&#45;&gt;1 -->
<g id="edge17" class="edge">
<title>8&#45;&gt;1</title>
<path fill="none" stroke="black" d="M190.72,-92.36C215.6,-77.67 258.56,-52.31 286.88,-35.6"/>
<polygon fill="black" stroke="black" points="288.69,-38.6 295.52,-30.5 285.13,-32.57 288.69,-38.6"/>
<text text-anchor="middle" x="257" y="-57.8" font-family="Times,serif" font-size="14.00">1</text>
</g>
<!-- 0 -->
<g id="node6" class="node">
<title>0</title>
<ellipse fill="none" stroke="black" cx="278" cy="-279" rx="27" ry="18"/>
<text text-anchor="middle" x="278" y="-275.3" font-family="Times,serif" font-size="14.00">0</text>
</g>
<!-- 0&#45;&gt;12 -->
<g id="edge6" class="edge">
<title>0&#45;&gt;12</title>
<path fill="none" stroke="black" d="M258.81,-266.18C235.26,-251.67 195.12,-226.95 168.09,-210.3"/>
<polygon fill="black" stroke="black" points="169.82,-207.26 159.47,-204.99 166.15,-213.22 169.82,-207.26"/>
<text text-anchor="middle" x="223" y="-231.8" font-family="Times,serif" font-size="14.00">1</text>
</g>
<!-- 10 -->
<g id="node7" class="node">
<title>10</title>
<ellipse fill="none" stroke="black" cx="243" cy="-192" rx="27" ry="18"/>
<text text-anchor="middle" x="243" y="-188.3" font-family="Times,serif" font-size="14.00">10</text>
</g>
<!-- 0&#45;&gt;10 -->
<g id="edge7" class="edge">
<title>0&#45;&gt;10</title>
<path fill="none" stroke="black" d="M271.09,-261.21C266.12,-249.14 259.32,-232.64 253.66,-218.89"/>
<polygon fill="black" stroke="black" points="256.83,-217.38 249.78,-209.47 250.35,-220.05 256.83,-217.38"/>
<text text-anchor="middle" x="268" y="-231.8" font-family="Times,serif" font-size="14.00">1</text>
</g>
<!-- 6 -->
<g id="node8" class="node">
<title>6</title>
<ellipse fill="none" stroke="black" cx="315" cy="-192" rx="27" ry="18"/>
<text text-anchor="middle" x="315" y="-188.3" font-family="Times,serif" font-size="14.00">6</text>
</g>
<!-- 0&#45;&gt;6 -->
<g id="edge8" class="edge">
<title>0&#45;&gt;6</title>
<path fill="none" stroke="black" d="M285.13,-261.61C290.37,-249.58 297.6,-232.98 303.63,-219.13"/>
<polygon fill="black" stroke="black" points="306.98,-220.19 307.76,-209.63 300.56,-217.4 306.98,-220.19"/>
<text text-anchor="middle" x="304" y="-231.8" font-family="Times,serif" font-size="14.00">1</text>
</g>
<!-- 2 -->
<g id="node9" class="node">
<title>2</title>
<ellipse fill="none" stroke="black" cx="494" cy="-192" rx="27" ry="18"/>
<text text-anchor="middle" x="494" y="-188.3" font-family="Times,serif" font-size="14.00">2</text>
</g>
<!-- 0&#45;&gt;2 -->
<g id="edge9" class="edge">
<title>0&#45;&gt;2</title>
<path fill="none" stroke="black" d="M300.71,-269.06C339.28,-253.89 417.69,-223.03 461.87,-205.64"/>
<polygon fill="black" stroke="black" points="463.25,-208.86 471.27,-201.94 460.69,-202.35 463.25,-208.86"/>
<text text-anchor="middle" x="403" y="-231.8" font-family="Times,serif" font-size="14.00">1</text>
</g>
<!-- 10&#45;&gt;8 -->
<g id="edge11" class="edge">
<title>10&#45;&gt;8</title>
<path fill="none" stroke="black" d="M230.13,-175.8C219.07,-162.75 202.96,-143.74 190.35,-128.85"/>
<polygon fill="black" stroke="black" points="192.89,-126.43 183.76,-121.06 187.55,-130.96 192.89,-126.43"/>
<text text-anchor="middle" x="217" y="-144.8" font-family="Times,serif" font-size="14.00">1</text>
</g>
<!-- 11 -->
<g id="node10" class="node">
<title>11</title>
<ellipse fill="none" stroke="black" cx="243" cy="-105" rx="27" ry="18"/>
<text text-anchor="middle" x="243" y="-101.3" font-family="Times,serif" font-size="14.00">11</text>
</g>
<!-- 10&#45;&gt;11 -->
<g id="edge10" class="edge">
<title>10&#45;&gt;11</title>
<path fill="none" stroke="black" d="M243,-173.8C243,-162.16 243,-146.55 243,-133.24"/>
<polygon fill="black" stroke="black" points="246.5,-133.18 243,-123.18 239.5,-133.18 246.5,-133.18"/>
<text text-anchor="middle" x="248" y="-144.8" font-family="Times,serif" font-size="14.00">1</text>
</g>
<!-- 6&#45;&gt;8 -->
<g id="edge14" class="edge">
<title>6&#45;&gt;8</title>
<path fill="none" stroke="black" d="M300.9,-176.21C289.82,-165.27 273.53,-150.65 257,-141 236.6,-129.09 228.81,-132.05 207,-123 205.18,-122.24 203.32,-121.45 201.45,-120.63"/>
<polygon fill="black" stroke="black" points="202.72,-117.36 192.17,-116.41 199.83,-123.73 202.72,-117.36"/>
<text text-anchor="middle" x="283" y="-144.8" font-family="Times,serif" font-size="14.00">1</text>
</g>
<!-- 9 -->
<g id="node11" class="node">
<title>9</title>
<ellipse fill="none" stroke="black" cx="387" cy="-105" rx="27" ry="18"/>
<text text-anchor="middle" x="387" y="-101.3" font-family="Times,serif" font-size="14.00">9</text>
</g>
<!-- 6&#45;&gt;9 -->
<g id="edge13" class="edge">
<title>6&#45;&gt;9</title>
<path fill="none" stroke="black" d="M327.87,-175.8C338.93,-162.75 355.04,-143.74 367.65,-128.85"/>
<polygon fill="black" stroke="black" points="370.45,-130.96 374.24,-121.06 365.11,-126.43 370.45,-130.96"/>
<text text-anchor="middle" x="360" y="-144.8" font-family="Times,serif" font-size="14.00">1</text>
</g>
<!-- 7 -->
<g id="node12" class="node">
<title>7</title>
<ellipse fill="none" stroke="black" cx="315" cy="-105" rx="27" ry="18"/>
<text text-anchor="middle" x="315" y="-101.3" font-family="Times,serif" font-size="14.00">7</text>
</g>
<!-- 6&#45;&gt;7 -->
<g id="edge15" class="edge">
<title>6&#45;&gt;7</title>
<path fill="none" stroke="black" d="M315,-173.8C315,-162.16 315,-146.55 315,-133.24"/>
<polygon fill="black" stroke="black" points="318.5,-133.18 315,-123.18 311.5,-133.18 318.5,-133.18"/>
<text text-anchor="middle" x="320" y="-144.8" font-family="Times,serif" font-size="14.00">1</text>
</g>
<!-- 5 -->
<g id="node13" class="node">
<title>5</title>
<ellipse fill="none" stroke="black" cx="459" cy="-105" rx="27" ry="18"/>
<text text-anchor="middle" x="459" y="-101.3" font-family="Times,serif" font-size="14.00">5</text>
</g>
<!-- 2&#45;&gt;5 -->
<g id="edge19" class="edge">
<title>2&#45;&gt;5</title>
<path fill="none" stroke="black" d="M487.09,-174.21C482.12,-162.14 475.32,-145.64 469.66,-131.89"/>
<polygon fill="black" stroke="black" points="472.83,-130.38 465.78,-122.47 466.35,-133.05 472.83,-130.38"/>
<text text-anchor="middle" x="483" y="-144.8" font-family="Times,serif" font-size="14.00">1</text>
</g>
<!-- 4 -->
<g id="node14" class="node">
<title>4</title>
<ellipse fill="none" stroke="black" cx="531" cy="-105" rx="27" ry="18"/>
<text text-anchor="middle" x="531" y="-101.3" font-family="Times,serif" font-size="14.00">4</text>
</g>
<!-- 2&#45;&gt;4 -->
<g id="edge20" class="edge">
<title>2&#45;&gt;4</title>
<path fill="none" stroke="black" d="M501.13,-174.61C506.37,-162.58 513.6,-145.98 519.63,-132.13"/>
<polygon fill="black" stroke="black" points="522.98,-133.19 523.76,-122.63 516.56,-130.4 522.98,-133.19"/>
<text text-anchor="middle" x="519" y="-144.8" font-family="Times,serif" font-size="14.00">1</text>
</g>
<!-- 3 -->
<g id="node15" class="node">
<title>3</title>
<ellipse fill="none" stroke="black" cx="603" cy="-105" rx="27" ry="18"/>
<text text-anchor="middle" x="603" y="-101.3" font-family="Times,serif" font-size="14.00">3</text>
</g>
<!-- 2&#45;&gt;3 -->
<g id="edge21" class="edge">
<title>2&#45;&gt;3</title>
<path fill="none" stroke="black" d="M511.03,-177.72C529.03,-163.68 557.59,-141.41 578.11,-125.41"/>
<polygon fill="black" stroke="black" points="580.35,-128.1 586.09,-119.19 576.05,-122.58 580.35,-128.1"/>
<text text-anchor="middle" x="560" y="-144.8" font-family="Times,serif" font-size="14.00">1</text>
</g>
<!-- 11&#45;&gt;1 -->
<g id="edge12" class="edge">
<title>11&#45;&gt;1</title>
<path fill="none" stroke="black" d="M255.87,-88.8C266.93,-75.75 283.04,-56.74 295.65,-41.85"/>
<polygon fill="black" stroke="black" points="298.45,-43.96 302.24,-34.06 293.11,-39.43 298.45,-43.96"/>
<text text-anchor="middle" x="289" y="-57.8" font-family="Times,serif" font-size="14.00">1</text>
</g>
<!-- 9&#45;&gt;1 -->
<g id="edge16" class="edge">
<title>9&#45;&gt;1</title>
<path fill="none" stroke="black" d="M374.13,-88.8C363.07,-75.75 346.96,-56.74 334.35,-41.85"/>
<polygon fill="black" stroke="black" points="336.89,-39.43 327.76,-34.06 331.55,-43.96 336.89,-39.43"/>
<text text-anchor="middle" x="360" y="-57.8" font-family="Times,serif" font-size="14.00">1</text>
</g>
<!-- 7&#45;&gt;1 -->
<g id="edge18" class="edge">
<title>7&#45;&gt;1</title>
<path fill="none" stroke="black" d="M315,-86.8C315,-75.16 315,-59.55 315,-46.24"/>
<polygon fill="black" stroke="black" points="318.5,-46.18 315,-36.18 311.5,-46.18 318.5,-46.18"/>
<text text-anchor="middle" x="320" y="-57.8" font-family="Times,serif" font-size="14.00">1</text>
</g>
<!-- 5&#45;&gt;1 -->
<g id="edge22" class="edge">
<title>5&#45;&gt;1</title>
<path fill="none" stroke="black" d="M439.28,-92.36C414.4,-77.67 371.44,-52.31 343.12,-35.6"/>
<polygon fill="black" stroke="black" points="344.87,-32.57 334.48,-30.5 341.31,-38.6 344.87,-32.57"/>
<text text-anchor="middle" x="400" y="-57.8" font-family="Times,serif" font-size="14.00">1</text>
</g>
<!-- 4&#45;&gt;1 -->
<g id="edge23" class="edge">
<title>4&#45;&gt;1</title>
<path fill="none" stroke="black" d="M509.8,-93.67C504.97,-91.4 499.83,-89.06 495,-87 444.46,-65.4 384.53,-43.48 348.16,-30.57"/>
<polygon fill="black" stroke="black" points="349.15,-27.21 338.55,-27.17 346.82,-33.81 349.15,-27.21"/>
<text text-anchor="middle" x="456" y="-57.8" font-family="Times,serif" font-size="14.00">1</text>
</g>
<!-- 3&#45;&gt;1 -->
<g id="edge24" class="edge">
<title>3&#45;&gt;1</title>
<path fill="none" stroke="black" d="M581.88,-93.47C577.04,-91.22 571.88,-88.93 567,-87 492.27,-57.41 400.11,-36.18 350.56,-25.93"/>
<polygon fill="black" stroke="black" points="351.15,-22.48 340.65,-23.91 349.75,-29.33 351.15,-22.48"/>
<text text-anchor="middle" x="518" y="-57.8" font-family="Times,serif" font-size="14.00">1</text>
</g>
</g>
</svg>
