<?xml version="1.0" encoding="UTF-8" standalone="no"?>
<!DOCTYPE svg PUBLIC "-//W3C//DTD SVG 1.1//EN"
 "http://www.w3.org/Graphics/SVG/1.1/DTD/svg11.dtd">
<!-- Generated by graphviz version 2.43.0 (0)
 -->
<!-- Title: output Pages: 1 -->
<svg width="178pt" height="392pt"
 viewBox="0.00 0.00 178.00 392.00" xmlns="http://www.w3.org/2000/svg" xmlns:xlink="http://www.w3.org/1999/xlink">
<g id="graph0" class="graph" transform="scale(1 1) rotate(0) translate(4 388)">
<title>output</title>
<polygon fill="white" stroke="transparent" points="-4,4 -4,-388 174,-388 174,4 -4,4"/>
<!-- 3 -->
<g id="node1" class="node">
<title>3</title>
<ellipse fill="none" stroke="black" cx="28" cy="-192" rx="27" ry="18"/>
<text text-anchor="middle" x="28" y="-188.3" font-family="Times,serif" font-size="14.00">3</text>
</g>
<!-- 5 -->
<g id="node2" class="node">
<title>5</title>
<ellipse fill="none" stroke="black" cx="27" cy="-18" rx="27" ry="18"/>
<text text-anchor="middle" x="27" y="-14.3" font-family="Times,serif" font-size="14.00">5</text>
</g>
<!-- 3&#45;&gt;5 -->
<g id="edge1" class="edge">
<title>3&#45;&gt;5</title>
<path fill="none" stroke="black" d="M27.36,-173.96C26.88,-160.2 26.26,-140.36 26,-123 25.62,-97.02 25.98,-67.38 26.37,-46.41"/>
<polygon fill="black" stroke="black" points="29.87,-46.37 26.58,-36.3 22.88,-46.23 29.87,-46.37"/>
<text text-anchor="middle" x="37.5" y="-101.3" font-family="Times,serif" font-size="14.00">2/2</text>
</g>
<!-- 4 -->
<g id="node3" class="node">
<title>4</title>
<ellipse fill="none" stroke="black" cx="85" cy="-105" rx="27" ry="18"/>
<text text-anchor="middle" x="85" y="-101.3" font-family="Times,serif" font-size="14.00">4</text>
</g>
<!-- 3&#45;&gt;4 -->
<g id="edge2" class="edge">
<title>3&#45;&gt;4</title>
<path fill="none" stroke="black" d="M31.48,-173.78C34.09,-163.64 38.37,-150.91 45,-141 48.77,-135.36 53.68,-130.08 58.75,-125.41"/>
<polygon fill="black" stroke="black" points="61.38,-127.76 66.73,-118.61 56.84,-122.43 61.38,-127.76"/>
<text text-anchor="middle" x="61" y="-144.8" font-family="Times,serif" font-size="14.00">0/20</text>
</g>
<!-- 4&#45;&gt;5 -->
<g id="edge3" class="edge">
<title>4&#45;&gt;5</title>
<path fill="none" stroke="black" d="M74.36,-88.41C65.75,-75.79 53.47,-57.79 43.57,-43.28"/>
<polygon fill="black" stroke="black" points="46.29,-41.07 37.77,-34.78 40.51,-45.01 46.29,-41.07"/>
<text text-anchor="middle" x="70.5" y="-57.8" font-family="Times,serif" font-size="14.00">1/1</text>
</g>
<!-- 2 -->
<g id="node4" class="node">
<title>2</title>
<ellipse fill="none" stroke="black" cx="143" cy="-279" rx="27" ry="18"/>
<text text-anchor="middle" x="143" y="-275.3" font-family="Times,serif" font-size="14.00">2</text>
</g>
<!-- 2&#45;&gt;3 -->
<g id="edge5" class="edge">
<title>2&#45;&gt;3</title>
<path fill="none" stroke="black" d="M127.01,-264.41C114.68,-254.1 97.08,-239.75 81,-228 72.89,-222.07 63.85,-215.94 55.56,-210.49"/>
<polygon fill="black" stroke="black" points="57.23,-207.4 46.94,-204.88 53.42,-213.27 57.23,-207.4"/>
<text text-anchor="middle" x="116" y="-231.8" font-family="Times,serif" font-size="14.00">0/20</text>
</g>
<!-- 2&#45;&gt;4 -->
<g id="edge4" class="edge">
<title>2&#45;&gt;4</title>
<path fill="none" stroke="black" d="M141.37,-260.73C140.26,-251.03 138.52,-238.75 136,-228 127.84,-193.23 110.77,-155.67 98.62,-131.54"/>
<polygon fill="black" stroke="black" points="101.6,-129.68 93.92,-122.38 95.37,-132.88 101.6,-129.68"/>
<text text-anchor="middle" x="146" y="-188.3" font-family="Times,serif" font-size="14.00">1/33</text>
</g>
<!-- 1 -->
<g id="node5" class="node">
<title>1</title>
<ellipse fill="none" stroke="black" cx="71" cy="-279" rx="27" ry="18"/>
<text text-anchor="middle" x="71" y="-275.3" font-family="Times,serif" font-size="14.00">1</text>
</g>
<!-- 1&#45;&gt;3 -->
<g id="edge7" class="edge">
<title>1&#45;&gt;3</title>
<path fill="none" stroke="black" d="M58.26,-263.01C53.64,-257.05 48.66,-249.97 45,-243 41.21,-235.77 38,-227.53 35.42,-219.85"/>
<polygon fill="black" stroke="black" points="38.73,-218.71 32.41,-210.21 32.05,-220.8 38.73,-218.71"/>
<text text-anchor="middle" x="61" y="-231.8" font-family="Times,serif" font-size="14.00">2/50</text>
</g>
<!-- 1&#45;&gt;4 -->
<g id="edge6" class="edge">
<title>1&#45;&gt;4</title>
<path fill="none" stroke="black" d="M74.31,-260.96C75.31,-255.27 76.33,-248.88 77,-243 81.33,-205.18 83.37,-161.2 84.3,-133.48"/>
<polygon fill="black" stroke="black" points="87.8,-133.46 84.61,-123.35 80.8,-133.24 87.8,-133.46"/>
<text text-anchor="middle" x="98" y="-188.3" font-family="Times,serif" font-size="14.00">0/10</text>
</g>
<!-- 0 -->
<g id="node6" class="node">
<title>0</title>
<ellipse fill="none" stroke="black" cx="106" cy="-366" rx="27" ry="18"/>
<text text-anchor="middle" x="106" y="-362.3" font-family="Times,serif" font-size="14.00">0</text>
</g>
<!-- 0&#45;&gt;2 -->
<g id="edge8" class="edge">
<title>0&#45;&gt;2</title>
<path fill="none" stroke="black" d="M113.13,-348.61C118.37,-336.58 125.6,-319.98 131.63,-306.13"/>
<polygon fill="black" stroke="black" points="134.98,-307.19 135.76,-296.63 128.56,-304.4 134.98,-307.19"/>
<text text-anchor="middle" x="142" y="-318.8" font-family="Times,serif" font-size="14.00">1/20</text>
</g>
<!-- 0&#45;&gt;1 -->
<g id="edge9" class="edge">
<title>0&#45;&gt;1</title>
<path fill="none" stroke="black" d="M94.85,-349.54C90.99,-343.64 86.9,-336.72 84,-330 80.87,-322.75 78.36,-314.58 76.4,-306.98"/>
<polygon fill="black" stroke="black" points="79.78,-306.03 74.09,-297.1 72.96,-307.63 79.78,-306.03"/>
<text text-anchor="middle" x="100" y="-318.8" font-family="Times,serif" font-size="14.00">2/10</text>
</g>
</g>
</svg>
