<?xml version="1.0" encoding="UTF-8" standalone="no"?>
<!DOCTYPE svg PUBLIC "-//W3C//DTD SVG 1.1//EN"
 "http://www.w3.org/Graphics/SVG/1.1/DTD/svg11.dtd">
<!-- Generated by graphviz version 2.43.0 (0)
 -->
<!-- Title: output Pages: 1 -->
<svg width="183pt" height="392pt"
 viewBox="0.00 0.00 183.00 392.00" xmlns="http://www.w3.org/2000/svg" xmlns:xlink="http://www.w3.org/1999/xlink">
<g id="graph0" class="graph" transform="scale(1 1) rotate(0) translate(4 388)">
<title>output</title>
<polygon fill="white" stroke="transparent" points="-4,4 -4,-388 179,-388 179,4 -4,4"/>
<!-- 4 -->
<g id="node1" class="node">
<title>4</title>
<ellipse fill="none" stroke="black" cx="88" cy="-105" rx="27" ry="18"/>
<text text-anchor="middle" x="88" y="-101.3" font-family="Times,serif" font-size="14.00">4</text>
</g>
<!-- 5 -->
<g id="node2" class="node">
<title>5</title>
<ellipse fill="none" stroke="black" cx="120" cy="-18" rx="27" ry="18"/>
<text text-anchor="middle" x="120" y="-14.3" font-family="Times,serif" font-size="14.00">5</text>
</g>
<!-- 4&#45;&gt;5 -->
<g id="edge1" class="edge">
<title>4&#45;&gt;5</title>
<path fill="none" stroke="black" d="M94.32,-87.21C98.84,-75.22 105,-58.85 110.15,-45.16"/>
<polygon fill="black" stroke="black" points="113.44,-46.35 113.69,-35.76 106.89,-43.88 113.44,-46.35"/>
<text text-anchor="middle" x="114.5" y="-57.8" font-family="Times,serif" font-size="14.00">14</text>
</g>
<!-- 1 -->
<g id="node3" class="node">
<title>1</title>
<ellipse fill="none" stroke="black" cx="148" cy="-192" rx="27" ry="18"/>
<text text-anchor="middle" x="148" y="-188.3" font-family="Times,serif" font-size="14.00">1</text>
</g>
<!-- 1&#45;&gt;4 -->
<g id="edge3" class="edge">
<title>1&#45;&gt;4</title>
<path fill="none" stroke="black" d="M137,-175.41C128.03,-162.71 115.22,-144.56 104.95,-130.01"/>
<polygon fill="black" stroke="black" points="107.56,-127.64 98.94,-121.49 101.84,-131.68 107.56,-127.64"/>
<text text-anchor="middle" x="126" y="-144.8" font-family="Times,serif" font-size="14.00">1</text>
</g>
<!-- 1&#45;&gt;5 -->
<g id="edge2" class="edge">
<title>1&#45;&gt;5</title>
<path fill="none" stroke="black" d="M145.91,-173.63C142.68,-147.54 136,-96.77 128,-54 127.5,-51.33 126.94,-48.56 126.36,-45.8"/>
<polygon fill="black" stroke="black" points="129.77,-45.03 124.18,-36.03 122.94,-46.55 129.77,-45.03"/>
<text text-anchor="middle" x="148.5" y="-101.3" font-family="Times,serif" font-size="14.00">21</text>
</g>
<!-- 3 -->
<g id="node4" class="node">
<title>3</title>
<ellipse fill="none" stroke="black" cx="90" cy="-279" rx="27" ry="18"/>
<text text-anchor="middle" x="90" y="-275.3" font-family="Times,serif" font-size="14.00">3</text>
</g>
<!-- 3&#45;&gt;4 -->
<g id="edge6" class="edge">
<title>3&#45;&gt;4</title>
<path fill="none" stroke="black" d="M89.8,-260.88C89.45,-231 88.73,-169.11 88.32,-133.27"/>
<polygon fill="black" stroke="black" points="91.81,-133.01 88.2,-123.05 84.81,-133.09 91.81,-133.01"/>
<text text-anchor="middle" x="94" y="-188.3" font-family="Times,serif" font-size="14.00">5</text>
</g>
<!-- 3&#45;&gt;1 -->
<g id="edge4" class="edge">
<title>3&#45;&gt;1</title>
<path fill="none" stroke="black" d="M100.7,-262.23C107.39,-252.38 116.19,-239.44 124,-228 126.43,-224.44 129,-220.68 131.53,-217"/>
<polygon fill="black" stroke="black" points="134.47,-218.9 137.23,-208.67 128.69,-214.94 134.47,-218.9"/>
<text text-anchor="middle" x="133.5" y="-231.8" font-family="Times,serif" font-size="14.00">11</text>
</g>
<!-- 2 -->
<g id="node5" class="node">
<title>2</title>
<ellipse fill="none" stroke="black" cx="27" cy="-192" rx="27" ry="18"/>
<text text-anchor="middle" x="27" y="-188.3" font-family="Times,serif" font-size="14.00">2</text>
</g>
<!-- 3&#45;&gt;2 -->
<g id="edge5" class="edge">
<title>3&#45;&gt;2</title>
<path fill="none" stroke="black" d="M78.44,-262.41C68.94,-249.59 55.33,-231.22 44.49,-216.6"/>
<polygon fill="black" stroke="black" points="47.25,-214.44 38.48,-208.49 41.62,-218.61 47.25,-214.44"/>
<text text-anchor="middle" x="67" y="-231.8" font-family="Times,serif" font-size="14.00">2</text>
</g>
<!-- 2&#45;&gt;4 -->
<g id="edge7" class="edge">
<title>2&#45;&gt;4</title>
<path fill="none" stroke="black" d="M35.74,-174.76C41.37,-164.73 49.1,-151.78 57,-141 60.16,-136.69 63.74,-132.29 67.32,-128.12"/>
<polygon fill="black" stroke="black" points="70.08,-130.28 74.09,-120.48 64.84,-125.64 70.08,-130.28"/>
<text text-anchor="middle" x="66.5" y="-144.8" font-family="Times,serif" font-size="14.00">12</text>
</g>
<!-- 0 -->
<g id="node6" class="node">
<title>0</title>
<ellipse fill="none" stroke="black" cx="90" cy="-366" rx="27" ry="18"/>
<text text-anchor="middle" x="90" y="-362.3" font-family="Times,serif" font-size="14.00">0</text>
</g>
<!-- 0&#45;&gt;1 -->
<g id="edge10" class="edge">
<title>0&#45;&gt;1</title>
<path fill="none" stroke="black" d="M101.25,-349.39C105.24,-343.48 109.59,-336.58 113,-330 131.83,-293.69 134.78,-283.07 143,-243 144.5,-235.68 145.56,-227.66 146.3,-220.23"/>
<polygon fill="black" stroke="black" points="149.79,-220.52 147.15,-210.26 142.81,-219.92 149.79,-220.52"/>
<text text-anchor="middle" x="143" y="-275.3" font-family="Times,serif" font-size="14.00">8</text>
</g>
<!-- 0&#45;&gt;3 -->
<g id="edge8" class="edge">
<title>0&#45;&gt;3</title>
<path fill="none" stroke="black" d="M90,-347.8C90,-336.16 90,-320.55 90,-307.24"/>
<polygon fill="black" stroke="black" points="93.5,-307.18 90,-297.18 86.5,-307.18 93.5,-307.18"/>
<text text-anchor="middle" x="99.5" y="-318.8" font-family="Times,serif" font-size="14.00">10</text>
</g>
<!-- 0&#45;&gt;2 -->
<g id="edge9" class="edge">
<title>0&#45;&gt;2</title>
<path fill="none" stroke="black" d="M77.15,-350.16C66.53,-337.06 51.95,-317 44,-297 34.11,-272.13 29.97,-241.72 28.24,-220.23"/>
<polygon fill="black" stroke="black" points="31.73,-219.91 27.56,-210.17 24.75,-220.38 31.73,-219.91"/>
<text text-anchor="middle" x="49" y="-275.3" font-family="Times,serif" font-size="14.00">8</text>
</g>
</g>
</svg>
